<svg xmlns="http://www.w3.org/2000/svg" version="1.1" xmlns:xlink="http://www.w3.org/1999/xlink" viewBox="0 0 200 200"><rect width="200" height="200" fill="url('#gradient')"></rect><defs><linearGradient id="gradient" gradientTransform="rotate(45 0.5 0.5)"><stop offset="0%" stop-color="#277f7e"></stop><stop offset="100%" stop-color="#155e6a"></stop></linearGradient></defs><g><g fill="#c73331" transform="matrix(4.695690607734806,0,0,4.695690607734806,11.95579978329043,133.3857357144224)" stroke="#c08e51" stroke-width="0.4"><path d="M8.94 0L5.91-5.29L4.50-3.75L4.50 0L1.07 0L1.07-14.22L4.50-14.22L4.50-7.95L5.69-9.76L8.76-14.22L13.00-14.22L8.19-7.93L13.00 0L8.94 0ZM19.65-11.78L19.65-8.07L22.98-8.07L22.98-5.24L19.65-5.24L19.65-1.43L16.57-1.43L16.57-5.24L13.23-5.24L13.23-8.07L16.57-8.07L16.57-11.78L19.65-11.78ZM36.43-14.22L36.43 0L33.02 0L27.98-8.85L27.98 0L24.55 0L24.55-14.22L27.98-14.22L33.01-5.37L33.01-14.22L36.43-14.22Z"></path></g></g></svg>